# xmcd CD database file
# Copyright (C) 1993-1998 Ti Kan
#
# Track frame offsets:
# 150
# 23790
# 46205
# 66975
# 81315
# 98312
# 114435
# 130900
# 149040
# 164580
# 183630
#
# Disc length: 2804 seconds
# Revision: 0
# Processed by: cddbd v1.4b41PL1 Copyright (c) Steve Scherf et al.
# Submitted via: CDSpectrumPro v3.3.331
#
DISCID=990af20b
DTITLE=Lennie Gallant - believing in better
DYEAR=1900
DGENRE=
TTITLE0=Believing in Better
TTITLE1=Man of Steel
TTITLE2=Martyn's Brook
TTITLE3=Is it Love I Feel (or courage I lack)
TTITLE4=The Hope For Next Year
TTITLE5=How Many Bridges
TTITLE6=The Cry For Love
TTITLE7=Crumbling Foundations
TTITLE8=The Stairs
TTITLE9=Someone Like You
TTITLE10=The Other Side
EXTD=
EXTT0=
EXTT1=
EXTT2=
EXTT3=
EXTT4=
EXTT5=
EXTT6=
EXTT7=
EXTT8=
EXTT9=
EXTT10=
PLAYORDER=
